<?xml version="1.0" encoding="UTF-8"?>
<svg width="100" height="100" viewBox="0 0 100 100" xmlns="http://www.w3.org/2000/svg">
    <!-- Stem -->
    <path d="M 50 90 L 50 40" stroke="#4caf50" stroke-width="4" fill="none"/>
    <!-- Leaves -->
    <path d="M 50 60 C 30 50 30 70 50 65" stroke="#4caf50" stroke-width="4" fill="none"/>
    <path d="M 50 60 C 70 50 70 70 50 65" stroke="#4caf50" stroke-width="4" fill="none"/>
    <!-- Poison Berries -->
    <circle cx="40" cy="30" r="10" fill="#9c27b0"/>
    <circle cx="60" cy="30" r="10" fill="#9c27b0"/>
    <circle cx="50" cy="20" r="10" fill="#9c27b0"/>
    <!-- Skull symbol -->
    <circle cx="50" cy="30" r="15" fill="#000000" opacity="0.2"/>
    <path d="M 45 25 L 47 27 L 45 29 M 55 25 L 53 27 L 55 29" 
          stroke="white" stroke-width="2" fill="none"/>
    <path d="M 47 32 Q 50 35 53 32" stroke="white" stroke-width="2" fill="none"/>
    <!-- Shine on berries -->
    <circle cx="37" cy="27" r="3" fill="#ffffff" opacity="0.3"/>
    <circle cx="57" cy="27" r="3" fill="#ffffff" opacity="0.3"/>
    <circle cx="47" cy="17" r="3" fill="#ffffff" opacity="0.3"/>
</svg>
