<?xml version="1.0" encoding="UTF-8"?>
<svg width="100" height="100" viewBox="0 0 100 100" xmlns="http://www.w3.org/2000/svg">
    <!-- Stem -->
    <path d="M 50 90 L 50 20" stroke="#4caf50" stroke-width="4" fill="none"/>
    <!-- Leaves -->
    <path d="M 50 70 C 30 60 20 80 50 75" stroke="#4caf50" stroke-width="4" fill="none"/>
    <path d="M 50 70 C 70 60 80 80 50 75" stroke="#4caf50" stroke-width="4" fill="none"/>
    <path d="M 50 50 C 30 40 20 60 50 55" stroke="#4caf50" stroke-width="4" fill="none"/>
    <path d="M 50 50 C 70 40 80 60 50 55" stroke="#4caf50" stroke-width="4" fill="none"/>
    <!-- Flower -->
    <circle cx="50" cy="20" r="15" fill="#ffeb3b"/>
    <!-- Petals -->
    <circle cx="40" cy="15" r="8" fill="#ffeb3b"/>
    <circle cx="60" cy="15" r="8" fill="#ffeb3b"/>
    <circle cx="45" cy="30" r="8" fill="#ffeb3b"/>
    <circle cx="55" cy="30" r="8" fill="#ffeb3b"/>
    <!-- Center -->
    <circle cx="50" cy="20" r="8" fill="#fdd835"/>
    <!-- Spikes -->
    <path d="M 35 15 L 30 10 M 65 15 L 70 10" stroke="#4caf50" stroke-width="2"/>
    <path d="M 40 30 L 35 35 M 60 30 L 65 35" stroke="#4caf50" stroke-width="2"/>
</svg>
